<svg width="24" height="25" viewBox="0 0 24 25" fill="none" xmlns="http://www.w3.org/2000/svg">
<path d="M21.75 12.5C21.75 14.4284 21.1782 16.3134 20.1068 17.9168C19.0355 19.5202 17.5127 20.7699 15.7312 21.5078C13.9496 22.2458 11.9892 22.4389 10.0979 22.0627C8.20656 21.6865 6.46927 20.7579 5.10571 19.3943C3.74215 18.0307 2.81355 16.2934 2.43735 14.4021C2.06114 12.5108 2.25422 10.5504 2.99218 8.76884C3.73013 6.98726 4.97982 5.46452 6.58319 4.39317C8.18657 3.32183 10.0716 2.75 12 2.75C14.585 2.75273 17.0634 3.78084 18.8913 5.60872C20.7192 7.43661 21.7473 9.91498 21.75 12.5Z" fill="#369AFF"/>
<path d="M16.4433 9.96241C16.4056 9.87136 16.3503 9.78864 16.2806 9.71899C16.2109 9.64926 16.1282 9.59394 16.0371 9.55619C15.9461 9.51845 15.8485 9.49902 15.7499 9.49902C15.6514 9.49902 15.5538 9.51845 15.4627 9.55619C15.3717 9.59394 15.289 9.64926 15.2193 9.71899L10.4999 14.4393L8.78055 12.719C8.63982 12.5783 8.44895 12.4992 8.24993 12.4992C8.05091 12.4992 7.86003 12.5783 7.7193 12.719C7.57857 12.8597 7.49951 13.0506 7.49951 13.2496C7.49951 13.4486 7.57857 13.6395 7.7193 13.7802L9.9693 16.0302C10.039 16.1 10.1217 16.1553 10.2127 16.193C10.3038 16.2308 10.4014 16.2502 10.4999 16.2502C10.5985 16.2502 10.6961 16.2308 10.7871 16.193C10.8782 16.1553 10.9609 16.1 11.0306 16.0302L16.2806 10.7802C16.3503 10.7106 16.4056 10.6279 16.4433 10.5368C16.4811 10.4458 16.5005 10.3482 16.5005 10.2496C16.5005 10.1511 16.4811 10.0535 16.4433 9.96241Z" fill="#FCFCFC"/>
</svg>
