<svg width="current" height="current" viewBox="0 0 32 32" fill="none" xmlns="http://www.w3.org/2000/svg">
<path d="M25.8945 4H13.8945C13.6293 4 13.375 4.10536 13.1874 4.29289C12.9999 4.48043 12.8945 4.73478 12.8945 5V10H6.89453C6.62931 10 6.37496 10.1054 6.18742 10.2929C5.99989 10.4804 5.89453 10.7348 5.89453 11V27C5.89453 27.2652 5.99989 27.5196 6.18742 27.7071C6.37496 27.8946 6.62931 28 6.89453 28H19.8945C20.1597 28 20.4141 27.8946 20.6016 27.7071C20.7892 27.5196 20.8945 27.2652 20.8945 27V22H25.8945C26.1597 22 26.4141 21.8946 26.6016 21.7071C26.7892 21.5196 26.8945 21.2652 26.8945 21V5C26.8945 4.73478 26.7892 4.48043 26.6016 4.29289C26.4141 4.10536 26.1597 4 25.8945 4ZM18.8945 26H7.89453V12H18.8945V26ZM24.8945 20H20.8945V11C20.8945 10.7348 20.7892 10.4804 20.6016 10.2929C20.4141 10.1054 20.1597 10 19.8945 10H14.8945V6H24.8945V20Z" fill="current"/>
</svg>
