<svg width="current" height="current" viewBox="0 0 16 17" fill="none" xmlns="http://www.w3.org/2000/svg">
<path d="M11 8.10815C11 8.24076 10.9473 8.36794 10.8536 8.46171C10.7598 8.55548 10.6326 8.60815 10.5 8.60815H5.5C5.36739 8.60815 5.24022 8.55548 5.14645 8.46171C5.05268 8.36794 5 8.24076 5 8.10815C5 7.97555 5.05268 7.84837 5.14645 7.7546C5.24022 7.66083 5.36739 7.60815 5.5 7.60815H10.5C10.6326 7.60815 10.7598 7.66083 10.8536 7.7546C10.9473 7.84837 11 7.97555 11 8.10815ZM14.5 8.10815C14.5 9.39373 14.1188 10.6504 13.4046 11.7194C12.6903 12.7883 11.6752 13.6214 10.4874 14.1134C9.29973 14.6053 7.99279 14.7341 6.73192 14.4833C5.47104 14.2325 4.31285 13.6134 3.40381 12.7043C2.49477 11.7953 1.8757 10.6371 1.6249 9.37624C1.37409 8.11537 1.50282 6.80843 1.99479 5.62071C2.48676 4.43299 3.31988 3.41783 4.3888 2.7036C5.45772 1.98937 6.71442 1.60815 8 1.60815C9.72335 1.60997 11.3756 2.29538 12.5942 3.51397C13.8128 4.73256 14.4982 6.38481 14.5 8.10815ZM13.5 8.10815C13.5 7.02036 13.1774 5.95699 12.5731 5.05252C11.9687 4.14805 11.1098 3.4431 10.1048 3.02682C9.09977 2.61053 7.9939 2.50162 6.92701 2.71384C5.86011 2.92605 4.8801 3.44988 4.11092 4.21907C3.34173 4.98826 2.8179 5.96826 2.60568 7.03516C2.39347 8.10205 2.50238 9.20792 2.91867 10.2129C3.33495 11.2179 4.0399 12.0769 4.94437 12.6812C5.84884 13.2856 6.91221 13.6082 8 13.6082C9.45819 13.6065 10.8562 13.0265 11.8873 11.9954C12.9184 10.9643 13.4983 9.56634 13.5 8.10815Z" fill="current"/>
</svg>
