<svg width="16" height="17" viewBox="0 0 16 17" fill="none" xmlns="http://www.w3.org/2000/svg">
<path d="M8 9.5C8.55228 9.5 9 9.05228 9 8.5C9 7.94772 8.55228 7.5 8 7.5C7.44772 7.5 7 7.94772 7 8.5C7 9.05228 7.44772 9.5 8 9.5Z" fill="#090A0B"/>
<path d="M13 9.5C13.5523 9.5 14 9.05228 14 8.5C14 7.94772 13.5523 7.5 13 7.5C12.4477 7.5 12 7.94772 12 8.5C12 9.05228 12.4477 9.5 13 9.5Z" fill="#090A0B"/>
<path d="M3 9.5C3.55228 9.5 4 9.05229 4 8.5C4 7.94772 3.55228 7.5 3 7.5C2.44772 7.5 2 7.94772 2 8.5C2 9.05229 2.44772 9.5 3 9.5Z" fill="#090A0B"/>
</svg>
