<svg width="16" height="17" viewBox="0 0 16 17" fill="none" xmlns="http://www.w3.org/2000/svg">
<g clip-path="url(#clip0_2158_9366)">
<path d="M16.0003 3.99944V6.99944C16.0003 7.13205 15.9477 7.25922 15.8539 7.35299C15.7601 7.44676 15.6329 7.49944 15.5003 7.49944H12.5003C12.3677 7.49944 12.2405 7.44676 12.1468 7.35299C12.053 7.25922 12.0003 7.13205 12.0003 6.99944C12.0003 6.86683 12.053 6.73965 12.1468 6.64588C12.2405 6.55212 12.3677 6.49944 12.5003 6.49944H14.2128L12.551 4.97694L12.5353 4.96194C11.8404 4.26724 10.9561 3.79272 9.99305 3.59765C9.02998 3.40258 8.03077 3.49562 7.12026 3.86513C6.20975 4.23463 5.42831 4.86424 4.87354 5.67529C4.31878 6.48634 4.01529 7.44287 4.001 8.4254C3.9867 9.40793 4.26223 10.3729 4.79316 11.1997C5.3241 12.0266 6.0869 12.6787 6.98627 13.0745C7.88564 13.4703 8.88172 13.5924 9.85006 13.4254C10.8184 13.2585 11.7161 12.8099 12.431 12.1357C12.5273 12.0445 12.656 11.9954 12.7886 11.9991C12.9212 12.0028 13.047 12.059 13.1381 12.1554C13.2293 12.2518 13.2785 12.3804 13.2748 12.513C13.2711 12.6457 13.2148 12.7714 13.1185 12.8626C12.0069 13.9168 10.5323 14.5029 9.00033 14.4994H8.91783C7.93517 14.486 6.97085 14.2313 6.10964 13.7579C5.24843 13.2845 4.51669 12.6068 3.97874 11.7843C3.44079 10.9619 3.11309 10.0199 3.02446 9.04116C2.93582 8.06241 3.08895 7.07687 3.4704 6.17116C3.85185 5.26545 4.44993 4.46731 5.21207 3.84687C5.97422 3.22644 6.8771 2.80271 7.84136 2.61293C8.80562 2.42316 9.80173 2.47314 10.7421 2.75849C11.6826 3.04384 12.5385 3.55582 13.2347 4.24944L15.0003 5.86194V3.99944C15.0003 3.86683 15.053 3.73965 15.1468 3.64588C15.2405 3.55212 15.3677 3.49944 15.5003 3.49944C15.6329 3.49944 15.7601 3.55212 15.8539 3.64588C15.9477 3.73965 16.0003 3.86683 16.0003 3.99944Z" fill="#090A0B"/>
</g>
<defs>
<clipPath id="clip0_2158_9366">
<rect width="16" height="16" fill="white" transform="translate(0 0.5)"/>
</clipPath>
</defs>
</svg>
