<svg width="16" height="17" viewBox="0 0 16 17" fill="none" xmlns="http://www.w3.org/2000/svg">
<path d="M14.3536 14.1464L11.2243 11.0176C12.1313 9.92871 12.5836 8.53201 12.487 7.1181C12.3905 5.70419 11.7526 4.38193 10.706 3.42637C9.65938 2.47082 8.28468 1.95555 6.86784 1.98775C5.451 2.01995 4.10112 2.59714 3.09901 3.59926C2.0969 4.60137 1.51971 5.95125 1.48751 7.36808C1.45531 8.78492 1.97058 10.1596 2.92613 11.2062C3.88168 12.2528 5.20395 12.8908 6.61786 12.9873C8.03177 13.0838 9.42846 12.6315 10.5174 11.7245L13.6461 14.8539C13.6926 14.9003 13.7478 14.9372 13.8085 14.9623C13.8691 14.9875 13.9342 15.0004 13.9999 15.0004C14.0656 15.0004 14.1307 14.9875 14.1913 14.9623C14.252 14.9372 14.3072 14.9003 14.3536 14.8539C14.4001 14.8074 14.437 14.7523 14.4621 14.6916C14.4872 14.6309 14.5002 14.5658 14.5002 14.5001C14.5002 14.4344 14.4872 14.3694 14.4621 14.3087C14.437 14.248 14.4001 14.1928 14.3536 14.1464ZM2.4999 7.50014C2.4999 6.61013 2.76382 5.7401 3.25829 5.00008C3.75275 4.26006 4.45556 3.68328 5.27782 3.34268C6.10009 3.00209 7.00489 2.91298 7.8778 3.08661C8.75072 3.26024 9.55254 3.68883 10.1819 4.31816C10.8112 4.9475 11.2398 5.74932 11.4134 6.62224C11.5871 7.49515 11.498 8.39995 11.1574 9.22222C10.8168 10.0445 10.24 10.7473 9.49996 11.2418C8.75994 11.7362 7.88991 12.0001 6.9999 12.0001C5.80683 11.9988 4.66301 11.5243 3.81938 10.6807C2.97575 9.83704 2.50122 8.69321 2.4999 7.50014Z" fill="#828F9B"/>
</svg>
