<svg width="276" height="56" viewBox="0 0 276 56" fill="none" xmlns="http://www.w3.org/2000/svg">
<g clip-path="url(#clip0_630_1156)">
<path d="M16.6502 27.4969C11.6883 25.3804 10.1052 24.6043 10.1052 21.9939C10.1052 18.8661 12.5625 17.7607 14.6654 17.7607C17.0046 17.7607 19.0838 19.2658 20.0998 21.7117L20.3361 22.2996L27.4954 18.5603L27.2591 18.0429C24.8018 12.7986 20.5724 10 14.9726 10C7.15168 10 1.90625 15.0092 1.90625 22.4877C1.90625 24.5808 2.16616 26.8384 4.00915 29.1196C5.97027 31.4714 8.99466 33.0706 14.6418 35.5399C18.8239 37.3507 21.1867 38.5501 21.1867 42.0777C21.1867 45.0644 19.1784 48.2628 14.7835 48.2628C9.49085 48.2628 7.24619 43.2301 6.67912 41.6779L6.46646 41.09L-1 44.2178L-0.834604 44.7352C2.7096 55.2004 11.9245 56 14.6654 56C23.8331 56 30 50.1677 30 41.4663C30 39.3262 29.7165 36.7863 27.6136 34.2229C25.747 31.9182 22.4863 29.8957 16.6738 27.4969H16.6502Z" fill="#090A0B"/>
<path d="M71.4077 16.0471C68.6931 13.0588 64.2554 10 57.3863 10C42.7039 10 36 21.8353 36 32.8471C36 43.8588 42.6803 56 57.3863 56C64.1609 56 68.6459 52.8941 71.4077 49.8353V54.7529H80V11.0353H71.4077V16.0471ZM71.8326 32.9647C71.8326 40.3294 67.5837 48.2824 58.2124 48.2824C50.0687 48.2824 44.8047 42.2353 44.8047 32.8706C44.8047 22.4235 51.5322 17.7647 58.2124 17.7647C64.8927 17.7647 71.8326 22.5176 71.8326 32.9882V32.9647Z" fill="#090A0B"/>
<path d="M132.657 10C130.577 10 124.434 10 119.948 16.4083C117.262 12.1519 113.384 10 108.408 10C104.437 10 100.98 11.5607 98.5033 14.422V11.0168H90V55H98.5033V31.1167C98.5033 22.2727 101.423 17.7798 107.193 17.7798C110.23 17.7798 112.239 19.1986 113.337 22.1072C114.248 24.5665 114.248 27.4041 114.248 29.0357V55H122.752V30.5964C122.752 21.9653 125.625 17.7798 131.535 17.7798C137.445 17.7798 138.497 23.1713 138.497 28.4209V55H147V27.2859C147 15.8171 142.188 10 132.657 10Z" fill="#090A0B"/>
<path d="M190.408 16.0471C187.693 13.0588 183.255 10 176.386 10C161.704 10 155 21.8353 155 32.8471C155 43.8588 161.68 56 176.386 56C183.161 56 187.646 52.8941 190.408 49.8353V54.7529H199V11.0353H190.408V16.0471ZM190.809 32.9647C190.809 40.3294 186.56 48.2824 177.189 48.2824C169.045 48.2824 163.781 42.2353 163.781 32.8706C163.781 22.4235 170.509 17.7647 177.189 17.7647C183.869 17.7647 190.809 22.5176 190.809 32.9882V32.9647Z" fill="#090A0B"/>
<path d="M220.796 0H212.419V11.118H208V19.073H212.419V55H220.796V19.073H228V11.118H220.796V0Z" fill="#090A0B"/>
<path d="M267.408 11.0118V16.0235C264.693 13.0353 260.255 10 253.386 10C238.704 10 232 21.8353 232 32.8471C232 43.8588 238.68 56 253.386 56C260.161 56 264.646 52.8941 267.408 49.8353V54.7529H276V11.0118H267.408ZM267.809 32.9412C267.809 40.3059 263.56 48.2588 254.189 48.2588C246.045 48.2588 240.781 42.2118 240.781 32.8471C240.781 22.4 247.509 17.7412 254.189 17.7412C260.869 17.7412 267.809 22.4941 267.809 32.9647V32.9412Z" fill="#090A0B"/>
</g>
<defs>
<clipPath id="clip0_630_1156">
<rect width="276" height="56" fill="white"/>
</clipPath>
</defs>
</svg>
