<svg width="13" height="9" viewBox="0 0 13 9" fill="current" xmlns="http://www.w3.org/2000/svg">
<path d="M12.3538 0.853784L4.35378 8.85378C4.30735 8.90027 4.2522 8.93715 4.1915 8.96231C4.13081 8.98748 4.06574 9.00043 4.00003 9.00043C3.93433 9.00043 3.86926 8.98748 3.80856 8.96231C3.74786 8.93715 3.69272 8.90027 3.64628 8.85378L0.146284 5.35378C0.0524635 5.25996 -0.000244141 5.13272 -0.000244141 5.00003C-0.000244141 4.86735 0.0524635 4.7401 0.146284 4.64628C0.240104 4.55246 0.367352 4.49976 0.500034 4.49976C0.632716 4.49976 0.759964 4.55246 0.853784 4.64628L4.00003 7.79316L11.6463 0.146284C11.7401 0.0524633 11.8674 -0.000244142 12 -0.000244141C12.1327 -0.00024414 12.26 0.0524633 12.3538 0.146284C12.4476 0.240104 12.5003 0.367352 12.5003 0.500034C12.5003 0.632716 12.4476 0.759964 12.3538 0.853784Z" fill="#090A0B"/>
</svg>
